<?xml version="1.0" standalone="no"?>
<!DOCTYPE svg PUBLIC "-//W3C//DTD SVG 1.1//EN" "http://www.w3.org/Graphics/SVG/1.1/DTD/svg11.dtd" >
<svg xmlns="http://www.w3.org/2000/svg" xmlns:xlink="http://www.w3.org/1999/xlink" version="1.1">
<metadata>
Created by FontForge 20141024 at Thu Jan 15 14:09:18 2015
 By System Administrator
Copyright 2002 Adobe Systems Incorporated. All rights reserved.
</metadata>
<defs>
<font id="FuturisXC-Bold" horiz-adv-x="672" >
  <font-face 
    font-family="FuturisXC"
    font-weight="800"
    font-stretch="normal"
    units-per-em="1000"
    panose-1="4 0 9 0 0 0 0 0 0 0"
    ascent="775"
    descent="-225"
    x-height="483"
    cap-height="700"
    bbox="-28 -224.579 1289 889"
    underline-thickness="50"
    underline-position="-50"
    stemh="154"
    stemv="224"
    unicode-range="U+0020-2122"
  />
<missing-glyph horiz-adv-x="233" 
 />
    <glyph glyph-name=".notdef" horiz-adv-x="233" 
 />
    <glyph glyph-name="space" unicode=" " horiz-adv-x="233" 
 />
    <glyph glyph-name="space" unicode="&#xa0;" horiz-adv-x="233" 
 />
    <glyph glyph-name="exclam" unicode="!" horiz-adv-x="378" 
d="M73 238v462h232v-462h-232zM63 91c0 73 64 109 126 109s126 -36 126 -109c0 -74 -64 -108 -126 -108s-126 34 -126 108z" />
    <glyph glyph-name="quotedbl" unicode="&#x22;" horiz-adv-x="408" 
d="M176 700l-35 -203h-56l-35 203h126zM358 700l-35 -203h-56l-35 203h126z" />
    <glyph glyph-name="numbersign" unicode="#" horiz-adv-x="802" 
d="M506 40h-80l22 125h-157l-22 -125h-80l22 125h-123l17 100h123l29 170h-123l17 100h123l22 125h80l-22 -125h157l22 125h80l-22 -125h123l-17 -100h-123l-29 -170h123l-17 -100h-123zM308 265h157l29 170h-157z" />
    <glyph glyph-name="dollar" unicode="$" horiz-adv-x="609" 
d="M248 -17c-59 6 -131 27 -241 109l106 156c63 -50 111 -82 175 -82c51 0 59 28 59 42c0 50 -79 59 -132 74c-59 17 -170 60 -170 195c0 158 106 225 203 239v110h126v-109c35 -1 98 -10 180 -66l-81 -154c-67 41 -112 45 -128 45c-12 0 -65 1 -65 -44c0 -42 42 -40 97 -57
c78 -25 204 -51 204 -210c0 -162 -110 -233 -207 -244v-102h-126v98z" />
    <glyph glyph-name="percent" unicode="%" horiz-adv-x="882" 
d="M168 -20l455 740h91l-455 -740h-91zM21 528c0 105 87 192 192 192s192 -87 192 -192s-87 -192 -192 -192s-192 87 -192 192zM135 528c0 -44 34 -78 78 -78s78 34 78 78s-34 78 -78 78s-78 -34 -78 -78zM477 172c0 105 87 192 192 192s192 -87 192 -192
s-87 -192 -192 -192s-192 87 -192 192zM591 172c0 -44 34 -78 78 -78s78 34 78 78s-34 78 -78 78s-78 -34 -78 -78z" />
    <glyph glyph-name="ampersand" unicode="&#x26;" horiz-adv-x="776" 
d="M531 0l-49 52c-67 -53 -113 -71 -204 -71c-190 0 -243 114 -243 196c0 117 100 177 164 201c-36 42 -55 84 -55 138c0 98 76 191 228 191c167 0 219 -108 219 -190c0 -91 -54 -146 -127 -191l44 -48l113 99l120 -125l-108 -96l143 -156h-245zM363 178l-64 77
c-32 -22 -53 -33 -53 -72c0 -27 22 -40 49 -40c20 0 40 8 68 35zM370 441c27 18 53 39 53 70c0 34 -28 43 -45 43c-15 0 -41 -10 -41 -47c0 -27 13 -45 33 -66z" />
    <glyph glyph-name="quotesingle" unicode="'" horiz-adv-x="226" 
d="M176 700l-35 -203h-56l-35 203h126z" />
    <glyph glyph-name="parenleft" unicode="(" horiz-adv-x="316" 
d="M302 -164l-112 -60c-138 199 -158 377 -158 490s20 291 158 490l112 -60c-108 -188 -119 -347 -119 -430s11 -242 119 -430z" />
    <glyph glyph-name="parenright" unicode=")" horiz-adv-x="317" 
d="M14 696l112 60c85 -121 159 -286 159 -490s-74 -369 -159 -490l-112 60c83 138 119 296 119 430s-36 292 -119 430z" />
    <glyph glyph-name="asterisk" unicode="*" horiz-adv-x="495" 
d="M184 735h126l-14 -132l108 78l63 -109l-122 -54l122 -54l-63 -109l-108 78l14 -132h-126l14 132l-107 -78l-63 109l121 54l-121 54l63 109l107 -78z" />
    <glyph glyph-name="plus" unicode="+" horiz-adv-x="644" 
d="M49 294v106h220v220h106v-220h220v-106h-220v-220h-106v220h-220z" />
    <glyph glyph-name="comma" unicode="," horiz-adv-x="392" 
d="M28 -140l98 315h238l-182 -315h-154z" />
    <glyph glyph-name="hyphenminus" horiz-adv-x="385" 
d="M28 364h329v-154h-329v154z" />
    <glyph glyph-name="period" unicode="." horiz-adv-x="378" 
d="M63 91c0 73 64 109 126 109s126 -36 126 -109c0 -74 -64 -108 -126 -108s-126 34 -126 108z" />
    <glyph glyph-name="slash" unicode="/" horiz-adv-x="533" 
d="M21 -196l365 931h126l-365 -931h-126z" />
    <glyph glyph-name="zero" unicode="0" 
d="M336 -14c-76 0 -304 16 -304 361c0 350 227 367 304 367s304 -17 304 -367c0 -345 -228 -361 -304 -361zM336 182c78 0 80 98 80 165c0 69 -2 171 -80 171s-80 -102 -80 -171c0 -67 2 -165 80 -165z" />
    <glyph glyph-name="one" unicode="1" horiz-adv-x="673" 
d="M256 0v507h-105v193h343v-700h-238z" />
    <glyph glyph-name="two" unicode="2" 
d="M616 0h-602l348 392c15 16 27 36 27 63c0 39 -25 63 -65 63c-55 0 -67 -50 -68 -77h-217c2 87 38 273 294 273c176 0 290 -84 290 -232c0 -127 -83 -203 -179 -293h172v-189z" />
    <glyph glyph-name="three" unicode="3" 
d="M29 245h229c0 -25 8 -75 73 -75c46 0 60 28 60 63c0 55 -57 58 -80 58h-39v136h34c23 0 69 0 69 56c0 27 -21 47 -52 47c-47 0 -57 -33 -57 -54h-221c25 227 230 238 281 238c137 0 279 -55 279 -193c0 -84 -52 -136 -117 -149v-3c34 -7 141 -40 141 -173
c0 -108 -81 -210 -311 -210s-281 160 -289 259z" />
    <glyph glyph-name="four" unicode="4" 
d="M342 0v133h-328v179l288 388h264v-385h85v-182h-85v-133h-224zM356 315v193l-138 -193h138z" />
    <glyph glyph-name="five" unicode="5" 
d="M597 518h-302l-11 -58c19 2 50 5 72 5c189 0 273 -103 273 -221c0 -125 -98 -258 -328 -258c-145 0 -238 42 -265 56l25 182h6c54 -38 106 -63 178 -63c96 0 132 35 132 87c0 25 -17 81 -143 81c-44 0 -107 -10 -150 -21h-12l82 392h443v-182z" />
    <glyph glyph-name="six" unicode="6" 
d="M281 700h271l-174 -235c147 18 265 -75 265 -231c0 -150 -118 -248 -310 -248c-167 0 -304 90 -304 269c0 78 29 133 66 184zM335 161c53 0 70 44 70 74c0 29 -17 73 -70 73c-44 0 -70 -33 -70 -73c0 -41 27 -74 70 -74z" />
    <glyph glyph-name="seven" unicode="7" 
d="M66 0l263 511h-287v189h630l-333 -700h-273z" />
    <glyph glyph-name="eight" unicode="8" 
d="M492 372v-2c52 -13 152 -54 152 -178c0 -66 -36 -206 -308 -206s-308 140 -308 206c0 124 100 165 152 178v2c-45 14 -116 57 -116 155c0 121 120 187 272 187s272 -66 272 -187c0 -98 -71 -141 -116 -155zM336 439c33 0 55 23 55 54c0 51 -47 55 -55 55
c-18 0 -55 -10 -55 -55c0 -31 22 -54 55 -54zM336 152c35 0 70 21 70 67c0 45 -34 66 -70 66s-70 -21 -70 -66c0 -46 35 -67 70 -67z" />
    <glyph glyph-name="nine" unicode="9" 
d="M398 0h-292l188 235c-147 -18 -265 75 -265 231c0 149 118 248 310 248c203 0 304 -121 304 -263c0 -100 -39 -162 -71 -206zM337 539c-53 0 -70 -44 -70 -73c0 -30 17 -74 70 -74c43 0 70 33 70 74c0 40 -26 73 -70 73z" />
    <glyph glyph-name="colon" unicode=":" horiz-adv-x="378" 
d="M63 392c0 73 64 109 126 109s126 -36 126 -109c0 -74 -64 -108 -126 -108s-126 34 -126 108zM63 91c0 73 64 109 126 109s126 -36 126 -109c0 -74 -64 -108 -126 -108s-126 34 -126 108z" />
    <glyph glyph-name="semicolon" unicode=";" horiz-adv-x="399" 
d="M119 392c0 73 64 109 126 109s126 -36 126 -109c0 -74 -64 -108 -126 -108s-126 34 -126 108zM28 -140l98 315h238l-182 -315h-154z" />
    <glyph glyph-name="less" unicode="&#x3c;" horiz-adv-x="500" 
d="M50 390l400 200v-100l-292 -140l292 -140v-100l-400 200v80z" />
    <glyph glyph-name="equal" unicode="=" horiz-adv-x="644" 
d="M49 378v106h546v-106h-546zM49 209v106h546v-106h-546z" />
    <glyph glyph-name="greater" unicode="&#x3e;" horiz-adv-x="500" 
d="M450 310l-400 -200v100l292 140l-292 140v100l400 -200v-80z" />
    <glyph glyph-name="question" unicode="?" horiz-adv-x="581" 
d="M246 483h-218c1 45 17 235 256 235c165 0 269 -84 269 -220c0 -82 -33 -131 -39 -139c-7 -9 -49 -65 -129 -66v-55h-196v179h73c72 0 81 43 81 67c0 25 -11 58 -51 58c-38 0 -46 -37 -46 -51v-8zM161 91c0 73 64 109 126 109s126 -36 126 -109c0 -74 -64 -108 -126 -108
s-126 34 -126 108z" />
    <glyph glyph-name="at" unicode="@" horiz-adv-x="917" 
d="M662 530l-56 -256c-9 -43 17 -48 38 -48c81 0 129 66 129 144c0 190 -147 294 -320 294c-193 0 -309 -141 -309 -304c0 -223 170 -322 319 -322c74 0 125 26 156 46l33 -70c-60 -38 -116 -54 -189 -54c-270 0 -399 186 -399 390c0 232 173 390 389 390
c313 0 400 -234 400 -370c0 -148 -124 -218 -234 -218c-55 0 -84 34 -101 62c-33 -38 -77 -62 -118 -62c-70 0 -159 40 -159 154c0 123 105 233 224 233c52 0 71 -25 83 -51l9 42h105zM421 250c76 0 103 88 103 121c0 19 -4 74 -61 74c-67 0 -95 -74 -95 -127
c0 -28 9 -68 53 -68z" />
    <glyph glyph-name="A" unicode="A" horiz-adv-x="792" 
d="M-7 0l249 700h308l249 -700h-287l-28 102h-176l-28 -102h-287zM396 455l-49 -178h98z" />
    <glyph glyph-name="B" unicode="B" horiz-adv-x="741" 
d="M63 700h395c201 0 222 -124 222 -178c0 -79 -64 -129 -122 -146v-2c90 -15 155 -84 155 -179c0 -71 -42 -195 -236 -195h-414v700zM343 434h26c49 0 62 25 62 49s-13 49 -62 49h-26v-98zM343 168h34c26 0 70 4 70 53c0 47 -43 52 -70 52h-34v-105z" />
    <glyph glyph-name="C" unicode="C" horiz-adv-x="645" 
d="M610 267v-245c-44 -23 -104 -43 -188 -43c-228 0 -390 147 -390 371c0 254 208 371 386 371c57 0 136 -14 192 -53v-245c-43 53 -106 74 -155 74c-104 0 -154 -69 -154 -154c0 -89 65 -140 153 -140c62 0 116 28 156 64z" />
    <glyph glyph-name="D" unicode="D" horiz-adv-x="795" 
d="M63 0v700h326c299 0 374 -193 374 -350c0 -188 -113 -350 -374 -350h-326zM343 203h22c33 0 132 8 132 147c0 101 -54 147 -132 147h-22v-294z" />
    <glyph glyph-name="E" unicode="E" horiz-adv-x="595" 
d="M63 0v700h490v-203h-210v-59h189v-168h-189v-67h210v-203h-490z" />
    <glyph glyph-name="F" unicode="F" horiz-adv-x="581" 
d="M63 0v700h490v-203h-210v-84h189v-189h-189v-224h-280z" />
    <glyph glyph-name="G" unicode="G" horiz-adv-x="862" 
d="M417 420h413v-84c0 -209 -135 -357 -385 -357c-259 0 -413 152 -413 366c0 187 116 376 410 376c92 0 245 -14 339 -171l-204 -102c-26 48 -74 70 -125 70c-93 0 -154 -66 -154 -172c0 -87 50 -171 153 -171c67 0 111 36 113 84h-147v161z" />
    <glyph glyph-name="H" unicode="H" horiz-adv-x="826" 
d="M63 0v700h280v-241h140v241h280v-700h-280v256h-140v-256h-280z" />
    <glyph glyph-name="I" unicode="I" horiz-adv-x="406" 
d="M63 0v700h280v-700h-280z" />
    <glyph glyph-name="J" unicode="J" horiz-adv-x="567" 
d="M231 700h280v-458c0 -45 1 -263 -270 -263c-43 0 -161 6 -241 123l119 136c16 -50 46 -56 64 -56c29 0 48 21 48 57v461z" />
    <glyph glyph-name="K" unicode="K" horiz-adv-x="805" 
d="M63 0v700h280v-252l155 252h307l-238 -332l245 -368h-322l-147 266v-266h-280z" />
    <glyph glyph-name="L" unicode="L" horiz-adv-x="553" 
d="M63 0v700h280v-497h196v-203h-476z" />
    <glyph glyph-name="M" unicode="M" horiz-adv-x="1058" 
d="M14 0l98 700h308l109 -399l109 399h308l98 -700h-272l-32 364l-106 -364h-210l-106 364l-32 -364h-272z" />
    <glyph glyph-name="N" unicode="N" horiz-adv-x="840" 
d="M63 0v700h263l185 -329v329h266v-700h-259l-189 336v-336h-266z" />
    <glyph glyph-name="O" unicode="O" horiz-adv-x="874" 
d="M437 -21c-274 0 -405 182 -405 371s131 371 405 371s405 -182 405 -371s-131 -371 -405 -371zM437 203c71 0 138 49 138 147s-67 147 -138 147s-138 -49 -138 -147s67 -147 138 -147z" />
    <glyph glyph-name="P" unicode="P" horiz-adv-x="735" 
d="M63 0v700h365c223 0 279 -141 279 -241c0 -101 -57 -242 -279 -242h-85v-217h-280zM343 518v-119h31c56 0 67 32 67 60c0 56 -44 59 -67 59h-31z" />
    <glyph glyph-name="Q" unicode="Q" horiz-adv-x="875" 
d="M854 0l-166 -79l-73 89c-42 -17 -92 -31 -178 -31c-274 0 -405 181 -405 371c0 189 131 371 405 371c231 0 406 -137 406 -371c0 -107 -34 -181 -84 -240zM421 254l149 55c3 14 5 27 5 41c0 98 -67 147 -138 147c-70 0 -137 -48 -137 -147c0 -82 50 -147 137 -147
c9 0 18 1 27 2z" />
    <glyph glyph-name="R" unicode="R" horiz-adv-x="756" 
d="M63 0v700h388c99 0 260 -40 260 -229c0 -102 -47 -160 -132 -198l177 -273h-321l-92 217v-217h-280zM343 518v-133h28c25 0 74 4 74 67c0 62 -48 66 -74 66h-28z" />
    <glyph glyph-name="S" unicode="S" horiz-adv-x="641" 
d="M7 92l106 156c60 -48 114 -80 175 -80c49 0 59 23 59 40c0 40 -45 50 -95 63c-59 16 -207 51 -207 206c0 124 88 244 287 244c143 0 233 -56 254 -70l-81 -154c-49 26 -85 42 -129 42c-32 0 -65 -10 -65 -41c0 -51 80 -44 167 -79c32 -13 135 -56 135 -188
c0 -158 -127 -252 -313 -252c-75 0 -169 18 -293 113z" />
    <glyph glyph-name="T" unicode="T" horiz-adv-x="588" 
d="M154 0v497h-147v203h574v-203h-147v-497h-280z" />
    <glyph glyph-name="U" unicode="U" horiz-adv-x="826" 
d="M56 700h280v-413c0 -34 6 -105 77 -105s77 71 77 105v413h280v-404c0 -79 -19 -317 -357 -317s-357 238 -357 317v404z" />
    <glyph glyph-name="V" unicode="V" horiz-adv-x="782" 
d="M245 0l-252 700h283l115 -392l115 392h283l-252 -700h-292z" />
    <glyph glyph-name="W" unicode="W" horiz-adv-x="1148" 
d="M574 392l-111 -392h-263l-207 700h301l75 -343l90 343h230l90 -343l75 343h301l-207 -700h-263z" />
    <glyph glyph-name="X" unicode="X" horiz-adv-x="797" 
d="M-7 0l249 368l-224 332h319l62 -133l62 133h306l-213 -322l250 -378h-315l-90 175l-98 -175h-308z" />
    <glyph glyph-name="Y" unicode="Y" horiz-adv-x="700" 
d="M210 0v291l-217 409h280l87 -206l81 206h266l-217 -409v-291h-280z" />
    <glyph glyph-name="Z" unicode="Z" horiz-adv-x="700" 
d="M42 700h665l-301 -497h273v-203h-686l308 497h-259v203z" />
    <glyph glyph-name="bracketleft" unicode="[" horiz-adv-x="343" 
d="M329 -196h-273v931h273v-105h-105v-721h105v-105z" />
    <glyph glyph-name="backslash" unicode="\" horiz-adv-x="533" 
d="M512 -210h-126l-365 945h126z" />
    <glyph glyph-name="bracketright" unicode="]" horiz-adv-x="343" 
d="M14 735h273v-931h-273v105h105v721h-105v105z" />
    <glyph glyph-name="asciicircum" unicode="^" horiz-adv-x="580" 
d="M290 646l-120 -146h-130l156 200h188l156 -200h-130z" />
    <glyph glyph-name="underscore" unicode="_" horiz-adv-x="500" 
d="M0 -110h500v-100h-500v100z" />
    <glyph glyph-name="grave" unicode="`" horiz-adv-x="333" 
d="M-28 700h210l123 -161h-120z" />
    <glyph glyph-name="a" unicode="a" horiz-adv-x="681" 
d="M625 483v-483h-217v50c-26 -31 -73 -71 -157 -71c-111 0 -221 92 -221 263c0 149 89 262 221 262c85 0 131 -40 157 -73v52h217zM331 147c49 0 84 37 84 95c0 56 -35 94 -84 94s-84 -38 -84 -94c0 -58 35 -95 84 -95z" />
    <glyph glyph-name="b" unicode="b" horiz-adv-x="681" 
d="M280 735v-295c19 21 65 64 150 64c104 0 221 -83 221 -262c0 -168 -109 -263 -221 -263c-84 0 -131 40 -157 71v-50h-217v735h224zM350 147c49 0 84 37 84 95c0 56 -35 94 -84 94s-84 -38 -84 -94c0 -58 35 -95 84 -95z" />
    <glyph glyph-name="c" unicode="c" horiz-adv-x="472" 
d="M444 199v-185c-26 -13 -78 -35 -151 -35c-148 0 -263 103 -263 263c0 143 100 262 263 262c53 0 96 -11 151 -35v-190c-23 19 -61 43 -105 43c-46 0 -92 -26 -92 -85c0 -53 50 -76 100 -76c30 0 54 6 97 38z" />
    <glyph glyph-name="d" unicode="d" horiz-adv-x="681" 
d="M625 735v-735h-217v50c-50 -57 -112 -71 -157 -71c-124 0 -221 103 -221 263c0 180 117 262 221 262c86 0 131 -43 150 -64v295h224zM332 147c50 0 83 37 83 95c0 56 -32 94 -83 94c-50 0 -85 -38 -85 -94c0 -58 35 -95 85 -95z" />
    <glyph glyph-name="e" unicode="e" horiz-adv-x="620" 
d="M590 196h-353c-1 -43 22 -91 77 -91c45 0 61 24 66 42h200c-33 -96 -123 -168 -277 -168c-193 0 -273 126 -273 263c0 155 108 262 280 262c250 0 283 -205 280 -308zM240 294h147c0 41 -24 84 -73 84c-47 0 -72 -44 -74 -84z" />
    <glyph glyph-name="f" unicode="f" horiz-adv-x="392" 
d="M70 0v315h-63v168h63v95c0 68 27 167 206 167c41 0 85 -6 109 -10v-168c-10 4 -32 10 -46 10c-42 0 -45 -41 -45 -64v-30h91v-168h-91v-315h-224z" />
    <glyph glyph-name="g" unicode="g" horiz-adv-x="674" 
d="M618 483v-469c0 -57 -15 -231 -306 -231c-94 0 -163 10 -240 48l71 134c23 -16 67 -42 130 -42c85 0 128 42 128 112v17c-33 -31 -74 -52 -136 -52c-148 0 -235 118 -235 261c0 171 122 243 224 243c85 0 127 -43 147 -70v49h217zM328 154c29 0 80 16 80 91
s-51 91 -80 91c-39 0 -81 -26 -81 -91s42 -91 81 -91z" />
    <glyph glyph-name="h" unicode="h" horiz-adv-x="651" 
d="M56 0v735h224v-308c32 46 84 77 149 77c157 0 173 -142 173 -222v-282h-224v273c0 38 -10 63 -41 63c-33 0 -57 -33 -57 -91v-245h-224z" />
    <glyph glyph-name="i" unicode="i" horiz-adv-x="336" 
d="M56 483h224v-483h-224v483zM42 637c0 63 58 112 126 112s126 -49 126 -112s-58 -112 -126 -112s-126 49 -126 112z" />
    <glyph glyph-name="j" unicode="j" horiz-adv-x="336" 
d="M56 483h224v-679h-224v679zM42 637c0 63 58 112 126 112s126 -49 126 -112s-58 -112 -126 -112s-126 49 -126 112z" />
    <glyph glyph-name="k" unicode="k" horiz-adv-x="662" 
d="M56 0v735h224v-437l115 185h252l-178 -227l203 -256h-263l-129 200v-200h-224z" />
    <glyph glyph-name="l" unicode="l" horiz-adv-x="336" 
d="M56 0v735h224v-735h-224z" />
    <glyph glyph-name="m" unicode="m" horiz-adv-x="931" 
d="M266 427c33 45 87 77 156 77c49 0 97 -17 131 -77c39 51 85 77 157 77c160 0 172 -149 172 -222v-282h-210v273c0 38 -10 63 -41 63c-33 0 -57 -33 -57 -91v-245h-210v273c0 38 -10 63 -41 63c-33 0 -57 -33 -57 -91v-245h-210v483h210v-56z" />
    <glyph glyph-name="n" unicode="n" horiz-adv-x="651" 
d="M56 0v483h224v-56c32 46 84 77 149 77c157 0 173 -142 173 -222v-282h-224v273c0 38 -10 63 -41 63c-33 0 -57 -33 -57 -91v-245h-224z" />
    <glyph glyph-name="o" unicode="o" horiz-adv-x="644" 
d="M322 -21c-204 0 -292 125 -292 263c0 137 87 262 292 262s292 -125 292 -262c0 -138 -88 -263 -292 -263zM322 161c58 0 75 50 75 81c0 30 -17 80 -75 80s-75 -50 -75 -80c0 -31 17 -81 75 -81z" />
    <glyph glyph-name="p" unicode="p" horiz-adv-x="681" 
d="M56 483h217v-52c45 61 113 73 157 73c104 0 221 -84 221 -262c0 -140 -82 -263 -221 -263c-31 0 -94 2 -150 63v-238h-224v679zM350 147c49 0 84 37 84 95c0 56 -35 94 -84 94s-84 -38 -84 -94c0 -58 35 -95 84 -95z" />
    <glyph glyph-name="q" unicode="q" horiz-adv-x="681" 
d="M401 -196v238c-23 -25 -69 -63 -150 -63c-112 0 -221 95 -221 263c0 179 117 262 221 262c50 0 111 -14 157 -73v52h217v-679h-224zM331 147c49 0 84 37 84 95c0 56 -35 94 -84 94s-84 -38 -84 -94c0 -58 35 -95 84 -95z" />
    <glyph glyph-name="r" unicode="r" horiz-adv-x="434" 
d="M56 0v483h217v-63c28 42 79 82 154 77v-196c-14 9 -30 14 -50 14c-65 0 -97 -59 -97 -123v-192h-224z" />
    <glyph glyph-name="s" unicode="s" horiz-adv-x="486" 
d="M21 30l56 128c43 -24 72 -39 113 -39c50 0 51 25 51 28c0 18 -7 30 -52 38c-98 16 -153 52 -153 146c0 92 67 173 220 173c17 0 109 -1 188 -45l-54 -112c-35 21 -70 31 -97 31c-50 0 -54 -28 -54 -36c0 -34 43 -35 80 -41c113 -18 132 -88 132 -147
c0 -35 -7 -175 -234 -175c-85 0 -137 14 -196 51z" />
    <glyph glyph-name="t" unicode="t" horiz-adv-x="385" 
d="M70 0v315h-63v168h63v147h224v-147h84v-168h-84v-315h-224z" />
    <glyph glyph-name="u" unicode="u" horiz-adv-x="644" 
d="M49 483h224v-253c0 -24 1 -69 49 -69s49 45 49 69v253h224v-260c0 -58 -5 -244 -273 -244s-273 186 -273 244v260z" />
    <glyph glyph-name="v" unicode="v" horiz-adv-x="526" 
d="M172 0l-182 483h210l63 -231l63 231h210l-182 -483h-182z" />
    <glyph glyph-name="w" unicode="w" horiz-adv-x="820" 
d="M410 217l-60 -217h-166l-194 483h217l67 -217l64 217h144l64 -217l67 217h217l-194 -483h-166z" />
    <glyph glyph-name="x" unicode="x" horiz-adv-x="616" 
d="M-7 0l196 256l-175 227h238l56 -115l56 115h238l-175 -227l196 -256h-231l-84 137l-84 -137h-231z" />
    <glyph glyph-name="y" unicode="y" horiz-adv-x="624" 
d="M-10 483h252l103 -210l73 210h216l-294 -679h-224l125 252z" />
    <glyph glyph-name="z" unicode="z" horiz-adv-x="532" 
d="M28 483h497l-204 -315h183v-168h-504l201 315h-173v168z" />
    <glyph glyph-name="braceleft" unicode="{" horiz-adv-x="483" 
d="M100 196v100c87 7 94 97 94 135c0 20 -1 39 -2 59c-1 19 -2 38 -2 57c0 149 112 174 193 169v-80c-83 -13 -86 -74 -86 -93c0 -111 7 -89 7 -169c0 -47 -7 -90 -111 -124v-8c104 -34 111 -77 111 -124c0 -80 -7 -58 -7 -169c0 -19 3 -80 86 -93v-80
c-81 -5 -193 20 -193 169c0 19 1 38 2 57c1 20 2 39 2 59c0 38 -7 128 -94 135z" />
    <glyph glyph-name="bar" unicode="|" horiz-adv-x="226" 
d="M50 -224v1053h126v-1053h-126z" />
    <glyph glyph-name="braceright" unicode="}" horiz-adv-x="483" 
d="M383 296v-100c-87 -7 -94 -97 -94 -135c0 -20 1 -39 2 -59c1 -19 2 -38 2 -57c0 -149 -112 -174 -193 -169v80c83 13 86 74 86 93c0 111 -7 89 -7 169c0 47 7 90 111 124v8c-104 34 -111 77 -111 124c0 80 7 58 7 169c0 19 -3 80 -86 93v80c81 5 193 -20 193 -169
c0 -19 -1 -38 -2 -57c-1 -20 -2 -39 -2 -59c0 -38 7 -128 94 -135z" />
    <glyph glyph-name="asciitilde" unicode="~" horiz-adv-x="600" 
d="M50 290v100c29 30 69 50 110 50c33 0 70 -12 110 -27c83 -30 131 -53 170 -53c28 0 65 7 110 50v-100c-29 -30 -69 -50 -110 -50c-45 0 -94 21 -180 53c-43 16 -74 27 -100 27c-28 0 -65 -7 -110 -50z" />
    <glyph glyph-name="afii10051" unicode="&#x402;" horiz-adv-x="839" 
d="M147 0v504h-140v196h700v-196h-280v-142c53 43 104 66 170 66c125 0 214 -86 214 -211c0 -219 -215 -220 -277 -220c-19 0 -38 1 -57 3v140c49 -9 68 30 68 49c0 13 -6 50 -52 50c-34 0 -56 -30 -66 -45v-194h-280z" />
    <glyph glyph-name="afii10052" unicode="&#x403;" horiz-adv-x="567" 
d="M63 0v700h490v-203h-210v-497h-280zM152 735l151 154h224l-228 -154h-147z" />
    <glyph glyph-name="quotesinglbase" unicode="&#x201a;" horiz-adv-x="392" 
d="M28 -140l98 315h238l-182 -315h-154z" />
    <glyph glyph-name="afii10100" unicode="&#x453;" horiz-adv-x="420" 
d="M56 0v483h357v-168h-133v-315h-224zM71 539l123 161h210l-214 -161h-119z" />
    <glyph glyph-name="quotedblbase" unicode="&#x201e;" horiz-adv-x="658" 
d="M28 -140l98 315h224l-168 -315h-154zM308 -140l98 315h224l-168 -315h-154z" />
    <glyph glyph-name="ellipsis" unicode="&#x2026;" horiz-adv-x="990" 
d="M63 84c0 56 46 102 102 102s102 -46 102 -102s-46 -102 -102 -102s-102 46 -102 102zM393 84c0 56 46 102 102 102s102 -46 102 -102s-46 -102 -102 -102s-102 46 -102 102zM723 84c0 56 46 102 102 102s102 -46 102 -102s-46 -102 -102 -102s-102 46 -102 102z" />
    <glyph glyph-name="dagger" unicode="&#x2020;" horiz-adv-x="616" 
d="M203 -196v532h-175v189h175v210h210v-210h175v-189h-175v-532h-210z" />
    <glyph glyph-name="daggerdbl" unicode="&#x2021;" horiz-adv-x="616" 
d="M203 -196v210h-175v189h175v133h-175v189h175v210h210v-210h175v-189h-175v-133h175v-189h-175v-210h-210z" />
    <glyph glyph-name="circumflex" unicode="&#x2c6;" horiz-adv-x="504" 
d="M252 623l-91 -84h-133l143 161h162l143 -161h-133z" />
    <glyph glyph-name="perthousand" unicode="&#x2030;" horiz-adv-x="1310" 
d="M168 -20l455 740h91l-455 -740h-91zM21 528c0 105 87 192 192 192s192 -87 192 -192s-87 -192 -192 -192s-192 87 -192 192zM135 528c0 -44 34 -78 78 -78s78 34 78 78s-34 78 -78 78s-78 -34 -78 -78zM477 172c0 105 87 192 192 192s192 -87 192 -192
s-87 -192 -192 -192s-192 87 -192 192zM591 172c0 -44 34 -78 78 -78s78 34 78 78s-34 78 -78 78s-78 -34 -78 -78zM905 172c0 105 87 192 192 192s192 -87 192 -192s-87 -192 -192 -192s-192 87 -192 192zM1019 172c0 -44 34 -78 78 -78s78 34 78 78s-34 78 -78 78
s-78 -34 -78 -78z" />
    <glyph glyph-name="afii10058" unicode="&#x409;" horiz-adv-x="1169" 
d="M140 700h644v-259h75c233 0 282 -122 282 -220c0 -99 -46 -221 -275 -221h-362v497h-112v-262c0 -95 -5 -246 -287 -246c-41 0 -77 6 -105 11v196c15 -4 29 -7 44 -7c94 0 96 73 96 153v358zM784 168h34c25 0 64 4 64 53c0 47 -38 52 -64 52h-34v-105z" />
    <glyph glyph-name="quilsinglleft" horiz-adv-x="322" 
d="M28 252l171 231l95 -59l-126 -172l126 -172l-95 -59z" />
    <glyph glyph-name="afii10059" unicode="&#x40a;" horiz-adv-x="1148" 
d="M63 0v700h280v-252h140v252h280v-252h75c232 0 282 -124 282 -227c0 -99 -46 -221 -275 -221h-362v256h-140v-256h-280zM763 168h34c34 0 64 9 64 56s-30 56 -64 56h-34v-112z" />
    <glyph glyph-name="afii10061" unicode="&#x40c;" horiz-adv-x="805" 
d="M63 0v700h280v-252l155 252h307l-238 -332l245 -368h-322l-147 266v-266h-280zM271 735l151 154h224l-228 -154h-147z" />
    <glyph glyph-name="afii10060" unicode="&#x40b;" horiz-adv-x="868" 
d="M147 0v504h-140v196h686v-196h-266v-155c30 26 86 72 181 72c135 0 211 -75 211 -217v-204h-280v154c0 19 1 64 -44 64c-34 0 -53 -24 -68 -51v-167h-280z" />
    <glyph glyph-name="afii10145" unicode="&#x40f;" horiz-adv-x="833" 
d="M63 0v700h280v-497h147v497h280v-700h-228v-196h-251v196h-228z" />
    <glyph glyph-name="afii10099" unicode="&#x452;" horiz-adv-x="690" 
d="M91 0v560h-84v105h84v70h224v-70h189v-105h-189v-133c29 48 90 74 152 74c129 0 184 -113 184 -241c0 -158 -60 -291 -139 -415l-167 72c61 107 91 205 91 329c0 77 -36 90 -62 90c-41 0 -59 -49 -59 -91v-245h-224z" />
    <glyph glyph-name="quoteleft" unicode="&#x2018;" horiz-adv-x="392" 
d="M364 735l-98 -315h-238l182 315h154z" />
    <glyph glyph-name="quoteright" unicode="&#x2019;" horiz-adv-x="392" 
d="M28 420l98 315h238l-182 -315h-154z" />
    <glyph glyph-name="quotedblleft" unicode="&#x201c;" horiz-adv-x="658" 
d="M350 735l-98 -315h-224l168 315h154zM630 735l-98 -315h-224l168 315h154z" />
    <glyph glyph-name="quotedblright" unicode="&#x201d;" horiz-adv-x="658" 
d="M28 420l98 315h224l-168 -315h-154zM308 420l98 315h224l-168 -315h-154z" />
    <glyph glyph-name="bullet" unicode="&#x2022;" horiz-adv-x="460" 
d="M50 350c0 100 80 180 180 180s180 -80 180 -180s-80 -180 -180 -180s-180 80 -180 180z" />
    <glyph glyph-name="endash" unicode="&#x2013;" horiz-adv-x="644" 
d="M49 294v105h546v-105h-546z" />
    <glyph glyph-name="emdash" unicode="&#x2014;" horiz-adv-x="777" 
d="M28 350h721v-119h-721v119z" />
    <glyph glyph-name="tilde" unicode="&#x2dc;" horiz-adv-x="462" 
d="M95 553l-67 49c47 90 103 95 126 95c49 0 75 -23 109 -38c4 -2 32 -11 55 -11c15 0 34 11 49 38l67 -56c-51 -76 -98 -91 -133 -91c-24 0 -49 4 -76 16c-25 11 -58 30 -85 30c-15 0 -35 -12 -45 -32z" />
    <glyph glyph-name="trademark" unicode="&#x2122;" horiz-adv-x="792" 
d="M120 420v190h-70v90h260v-90h-70v-190h-120zM531 549l41 151h126l44 -280h-102l-23 152l-44 -152h-84l-44 152l-23 -152h-102l44 280h126z" />
    <glyph glyph-name="afii10106" unicode="&#x459;" horiz-adv-x="921" 
d="M616 483v-161h100c133 0 180 -85 180 -164c0 -96 -77 -158 -180 -158h-324v315h-84v-154c0 -69 -11 -172 -197 -172c-35 0 -65 4 -97 11v168c10 -3 20 -4 30 -4c62 0 68 50 68 85v234h504zM616 112h17c34 0 53 19 53 50c0 33 -23 48 -53 48h-17v-98z" />
    <glyph glyph-name="quilsinglright" horiz-adv-x="322" 
d="M294 252l-171 -231l-95 59l126 172l-126 172l95 59z" />
    <glyph glyph-name="afii10107" unicode="&#x45a;" horiz-adv-x="900" 
d="M56 0v483h224v-161h91v161h224v-161h100c133 0 180 -85 180 -164c0 -96 -77 -158 -180 -158h-324v168h-91v-168h-224zM595 112h17c34 0 53 19 53 50c0 33 -23 48 -53 48h-17v-98z" />
    <glyph glyph-name="afii10109" unicode="&#x45c;" horiz-adv-x="648" 
d="M56 0v483h224v-197l111 197h249l-171 -227l189 -256h-256l-122 214v-214h-224zM185 539l123 161h210l-214 -161h-119z" />
    <glyph glyph-name="afii10108" unicode="&#x45b;" horiz-adv-x="686" 
d="M91 0v560h-84v105h84v70h224v-70h189v-105h-189v-133c32 46 84 77 149 77c158 0 173 -141 173 -222v-282h-224v273c0 38 -10 63 -41 63c-33 0 -57 -33 -57 -91v-245h-224z" />
    <glyph glyph-name="afii10193" unicode="&#x45f;" horiz-adv-x="658" 
d="M602 483v-483h-189v-140h-168v140h-189v483h224v-329h98v329h224z" />
    <glyph glyph-name="afii10062" unicode="&#x40e;" horiz-adv-x="791" 
d="M0 700h329l99 -214l80 214h290l-301 -700h-294l95 193zM395 735c-40 0 -182 3 -210 154h147c5 -68 52 -70 63 -70s58 2 63 70h147c-3 -17 -8 -32 -15 -47c-45 -96 -134 -107 -195 -107z" />
    <glyph glyph-name="afii10110" unicode="&#x45e;" horiz-adv-x="624" 
d="M-10 483h252l103 -210l73 210h216l-294 -679h-224l125 252zM312 546c-123 0 -185 74 -198 154h135c5 -68 52 -70 63 -70s58 2 63 70h135c-13 -80 -75 -154 -198 -154z" />
    <glyph glyph-name="afii10057" unicode="&#x408;" horiz-adv-x="567" 
d="M231 700h280v-458c0 -45 1 -263 -270 -263c-43 0 -161 6 -241 123l119 136c16 -50 46 -56 64 -56c29 0 48 21 48 57v461z" />
    <glyph glyph-name="currency" unicode="&#xa4;" horiz-adv-x="692" 
d="M123 198c-27 39 -47 89 -47 152s20 113 47 152l-73 74l70 70l74 -73c39 27 89 47 152 47s113 -20 152 -47l74 73l70 -70l-73 -74c27 -39 47 -89 47 -152s-20 -113 -47 -152l73 -74l-70 -70l-74 73c-39 -27 -89 -47 -152 -47s-113 20 -152 47l-74 -73l-70 70zM166 350
c0 -100 80 -180 180 -180s180 80 180 180s-80 180 -180 180s-180 -80 -180 -180z" />
    <glyph glyph-name="afii10050" unicode="&#x490;" horiz-adv-x="595" 
d="M63 0v700h294v140h224v-336h-238v-504h-280z" />
    <glyph glyph-name="brokenbar" unicode="&#xa6;" horiz-adv-x="226" 
d="M50 430v399h126v-399h-126zM50 175h126v-399h-126v399z" />
    <glyph glyph-name="section" unicode="&#xa7;" horiz-adv-x="645" 
d="M48 21h221v-11c0 -14 2 -47 48 -47c25 0 41 17 41 37c0 56 -61 57 -124 72c-109 25 -199 69 -199 189c0 80 43 133 106 152c-36 20 -77 60 -77 127c0 94 81 188 263 188c209 0 271 -109 271 -200h-214v9c0 23 -17 38 -43 38c-28 0 -47 -18 -47 -44c0 -52 90 -57 157 -78
c100 -32 159 -88 159 -185c0 -87 -52 -131 -94 -149c60 -27 69 -87 69 -123c0 -87 -89 -178 -273 -178c-202 0 -257 112 -264 203zM323 207c40 0 70 26 70 66c0 39 -30 67 -70 67s-70 -28 -70 -67c0 -40 30 -66 70 -66z" />
    <glyph glyph-name="afii10023" unicode="&#x401;" horiz-adv-x="595" 
d="M63 0v700h490v-196h-210v-66h189v-168h-189v-74h210v-196h-490zM193 735c-65 0 -91 43 -91 77s26 77 91 77s91 -43 91 -77s-26 -77 -91 -77zM431 735c-65 0 -91 43 -91 77s26 77 91 77s91 -43 91 -77s-26 -77 -91 -77z" />
    <glyph glyph-name="copyright" unicode="&#xa9;" horiz-adv-x="840" 
d="M565 161c-46 -24 -79 -35 -134 -35c-128 0 -219 97 -219 224c0 115 85 223 219 223c43 0 88 -9 134 -37v-117c-28 21 -63 39 -100 39c-53 0 -114 -29 -114 -108c0 -71 44 -109 114 -109c32 0 66 11 100 36v-116zM50 350c0 203 167 370 370 370s370 -167 370 -370
s-167 -370 -370 -370s-370 167 -370 370zM112 350c0 -170 138 -308 308 -308s308 138 308 308s-138 308 -308 308s-308 -138 -308 -308z" />
    <glyph glyph-name="afii10053" unicode="&#x404;" horiz-adv-x="669" 
d="M634 231v-203c-73 -37 -154 -49 -224 -49c-237 0 -378 167 -378 381c0 212 161 361 376 361c72 0 154 -16 226 -52v-200c-64 45 -129 56 -164 56c-74 0 -139 -35 -152 -95h232v-153h-243c7 -41 38 -102 145 -102c66 0 126 19 182 56z" />
    <glyph glyph-name="guillemotleft" unicode="&#xab;" horiz-adv-x="539" 
d="M28 252l171 231l95 -59l-126 -172l126 -172l-95 -59zM245 252l171 231l95 -59l-126 -172l126 -172l-95 -59z" />
    <glyph glyph-name="logicalnot" unicode="&#xac;" horiz-adv-x="640" 
d="M50 350v100h540v-250h-120v150h-420z" />
    <glyph glyph-name="hyphen" unicode="-" horiz-adv-x="385" 
d="M28 364h329v-154h-329v154z" />
    <glyph glyph-name="hyphen" unicode="&#xad;" horiz-adv-x="385" 
d="M28 364h329v-154h-329v154z" />
    <glyph glyph-name="registered" unicode="&#xae;" horiz-adv-x="846" 
d="M253 143v413h194c95 0 144 -58 144 -130c0 -82 -54 -106 -87 -113l101 -170h-135l-86 163h-5v-163h-126zM379 458v-70h51c6 0 31 2 31 36c0 15 -3 34 -41 34h-41zM53 350c0 203 167 370 370 370s370 -167 370 -370s-167 -370 -370 -370s-370 167 -370 370zM115 350
c0 -170 138 -308 308 -308s308 138 308 308s-138 308 -308 308s-308 -138 -308 -308z" />
    <glyph glyph-name="afii10056" unicode="&#x407;" horiz-adv-x="434" 
d="M77 0v700h280v-700h-280zM112 735c-65 0 -91 43 -91 77s26 77 91 77s91 -43 91 -77s-26 -77 -91 -77zM322 735c-65 0 -91 43 -91 77s26 77 91 77s91 -43 91 -77s-26 -77 -91 -77z" />
    <glyph glyph-name="degree" unicode="&#xb0;" horiz-adv-x="336" 
d="M56 609c0 62 50 112 112 112s112 -50 112 -112s-50 -112 -112 -112s-112 50 -112 112zM106 609c0 -35 27 -62 62 -62s62 27 62 62s-27 62 -62 62s-62 -27 -62 -62z" />
    <glyph glyph-name="plusminus" unicode="&#xb1;" horiz-adv-x="646" 
d="M50 430v106h220v220h106v-220h220v-106h-220v-220h-106v220h-220zM50 44v106h546v-106h-546z" />
    <glyph glyph-name="afii10055" unicode="&#x406;" horiz-adv-x="406" 
d="M63 0v700h280v-700h-280z" />
    <glyph glyph-name="afii10103" unicode="&#x456;" horiz-adv-x="336" 
d="M56 483h224v-483h-224v483zM42 637c0 63 58 112 126 112s126 -49 126 -112s-58 -112 -126 -112s-126 49 -126 112z" />
    <glyph glyph-name="afii10098" unicode="&#x491;" horiz-adv-x="434" 
d="M56 0v483h238v126h133v-294h-147v-315h-224z" />
    <glyph glyph-name="mu" unicode="&#xb5;" horiz-adv-x="693" 
d="M56 483h224v-245c0 -44 20 -91 70 -91s70 47 70 91v245h224v-483h-203v49c-21 -42 -56 -56 -84 -56c-21 0 -54 5 -77 42v-231h-224v679z" />
    <glyph glyph-name="mu" unicode="&#x3bc;" horiz-adv-x="693" 
d="M56 483h224v-245c0 -44 20 -91 70 -91s70 47 70 91v245h224v-483h-203v49c-21 -42 -56 -56 -84 -56c-21 0 -54 5 -77 42v-231h-224v679z" />
    <glyph glyph-name="paragraph" unicode="&#xb6;" horiz-adv-x="582" 
d="M203 -210v595c-117 3 -175 96 -175 175c0 80 59 171 175 175h126v-945h-126zM413 -210v945h126v-945h-126z" />
    <glyph glyph-name="periodcentered" unicode="&#xb7;" horiz-adv-x="330" 
d="M63 273c0 56 46 102 102 102s102 -46 102 -102s-46 -102 -102 -102s-102 46 -102 102z" />
    <glyph glyph-name="periodcentered" unicode="&#x2219;" horiz-adv-x="330" 
d="M63 273c0 56 46 102 102 102s102 -46 102 -102s-46 -102 -102 -102s-102 46 -102 102z" />
    <glyph glyph-name="afii10071" unicode="&#x451;" horiz-adv-x="620" 
d="M590 196h-353c-1 -43 22 -91 77 -91c45 0 61 24 66 42h200c-33 -96 -123 -168 -277 -168c-193 0 -273 126 -273 263c0 155 108 262 280 262c250 0 283 -205 280 -308zM240 294h147c0 41 -24 84 -73 84c-47 0 -72 -44 -74 -84zM86 637c0 54 41 98 91 98
c52 0 91 -45 91 -98s-39 -98 -91 -98c-50 0 -91 44 -91 98zM352 637c0 54 41 98 91 98c52 0 91 -45 91 -98s-39 -98 -91 -98c-50 0 -91 44 -91 98z" />
    <glyph glyph-name="numero" horiz-adv-x="1239" 
d="M63 0v700h262l200 -343v343h245v-700h-259l-203 350v-350h-245zM1015 196c-98 0 -196 63 -196 196s98 196 196 196s196 -63 196 -196s-98 -196 -196 -196zM1015 322c48 0 56 49 56 70s-8 70 -56 70s-56 -49 -56 -70s8 -70 56 -70zM854 0v140h322v-140h-322z" />
    <glyph glyph-name="afii10101" unicode="&#x454;" horiz-adv-x="506" 
d="M413 298v-112h-168c7 -35 38 -67 111 -67c29 0 70 6 120 35v-147c-46 -21 -105 -28 -143 -28c-161 0 -291 104 -291 266c0 164 138 259 295 259c61 0 104 -15 139 -34v-144c-26 16 -67 38 -113 38c-55 0 -101 -22 -115 -66h165z" />
    <glyph glyph-name="guillemotright" unicode="&#xbb;" horiz-adv-x="539" 
d="M294 252l-171 -231l-95 59l126 172l-126 172l95 59zM511 252l-171 -231l-95 59l126 172l-126 172l95 59z" />
    <glyph glyph-name="afii10105" unicode="&#x458;" horiz-adv-x="336" 
d="M56 483h224v-679h-224v679zM42 637c0 63 58 112 126 112s126 -49 126 -112s-58 -112 -126 -112s-126 49 -126 112z" />
    <glyph glyph-name="afii10054" unicode="&#x405;" horiz-adv-x="641" 
d="M7 92l106 156c60 -48 114 -80 175 -80c49 0 59 23 59 40c0 40 -45 50 -95 63c-59 16 -207 51 -207 206c0 124 88 244 287 244c143 0 233 -56 254 -70l-81 -154c-49 26 -85 42 -129 42c-32 0 -65 -10 -65 -41c0 -51 80 -44 167 -79c32 -13 135 -56 135 -188
c0 -158 -127 -252 -313 -252c-75 0 -169 18 -293 113z" />
    <glyph glyph-name="afii10102" unicode="&#x455;" horiz-adv-x="486" 
d="M21 30l56 128c43 -24 72 -39 113 -39c50 0 51 25 51 28c0 33 -26 30 -81 44c-80 19 -124 57 -124 140c0 92 67 173 220 173c17 0 109 -1 188 -45l-54 -112c-35 21 -70 31 -97 31c-50 0 -54 -28 -54 -36s4 -28 40 -35c46 -9 172 -8 172 -153c0 -35 -7 -175 -234 -175
c-85 0 -137 14 -196 51z" />
    <glyph glyph-name="afii10104" unicode="&#x457;" horiz-adv-x="392" 
d="M84 483h224v-483h-224v483zM14 637c0 54 36 98 84 98s84 -44 84 -98s-36 -98 -84 -98s-84 44 -84 98zM210 637c0 54 36 98 84 98s84 -44 84 -98s-36 -98 -84 -98s-84 44 -84 98z" />
    <glyph glyph-name="afii10017" unicode="&#x410;" horiz-adv-x="792" 
d="M-7 0l249 700h308l249 -700h-287l-28 102h-176l-28 -102h-287zM396 455l-49 -178h98z" />
    <glyph glyph-name="afii10018" unicode="&#x411;" horiz-adv-x="741" 
d="M63 0v700h581v-203h-301v-63h96c227 0 274 -116 274 -213c0 -99 -47 -221 -274 -221h-376zM343 168h27c26 0 70 4 70 53c0 47 -43 52 -70 52h-27v-105z" />
    <glyph glyph-name="afii10019" unicode="&#x412;" horiz-adv-x="741" 
d="M63 700h395c201 0 222 -124 222 -178c0 -79 -64 -129 -122 -146v-2c90 -15 155 -84 155 -179c0 -71 -42 -195 -236 -195h-414v700zM343 434h26c49 0 62 25 62 49s-13 49 -62 49h-26v-98zM343 168h34c26 0 70 4 70 53c0 47 -43 52 -70 52h-34v-105z" />
    <glyph glyph-name="afii10020" unicode="&#x413;" horiz-adv-x="567" 
d="M63 0v700h490v-203h-210v-497h-280z" />
    <glyph glyph-name="afii10021" unicode="&#x414;" horiz-adv-x="847" 
d="M140 700h616v-497h84v-343h-238v140h-364v-140h-238v343c137 7 140 153 140 226v271zM392 497v-99c0 -111 -24 -163 -64 -195h148v294h-84z" />
    <glyph glyph-name="afii10022" unicode="&#x415;" horiz-adv-x="595" 
d="M63 0v700h490v-203h-210v-59h189v-168h-189v-67h210v-203h-490z" />
    <glyph glyph-name="afii10024" unicode="&#x416;" horiz-adv-x="1176" 
d="M462 0v266l-147 -266h-322l252 364l-234 336h315l136 -255v255h252v-255l136 255h315l-234 -336l252 -364h-322l-147 266v-266h-252z" />
    <glyph glyph-name="afii10025" unicode="&#x417;" horiz-adv-x="651" 
d="M101 494l-80 161c86 43 185 66 287 66c190 0 302 -87 302 -199c0 -75 -53 -136 -122 -158v-3c35 -10 135 -48 135 -167c0 -127 -124 -215 -302 -215c-126 0 -196 21 -314 91l102 158c37 -32 101 -67 154 -67c40 0 80 14 80 57c0 31 -19 48 -82 48h-110v175h103
c49 0 85 6 85 48c0 25 -14 50 -81 50c-53 0 -116 -21 -157 -45z" />
    <glyph glyph-name="afii10026" unicode="&#x418;" horiz-adv-x="840" 
d="M63 700h266v-349l196 349h252v-700h-266v336l-196 -336h-252v700z" />
    <glyph glyph-name="afii10027" unicode="&#x419;" horiz-adv-x="840" 
d="M63 700h266v-349l196 349h252v-700h-266v336l-196 -336h-252v700zM429 735c-40 0 -182 3 -210 154h147c5 -68 52 -70 63 -70s58 2 63 70h147c-28 -151 -170 -154 -210 -154z" />
    <glyph glyph-name="afii10028" unicode="&#x41a;" horiz-adv-x="805" 
d="M63 0v700h280v-252l155 252h307l-238 -332l245 -368h-322l-147 266v-266h-280z" />
    <glyph glyph-name="afii10029" unicode="&#x41b;" horiz-adv-x="847" 
d="M140 700h644v-700h-280v497h-112v-262c0 -95 -5 -246 -287 -246c-41 0 -77 6 -105 11v196c15 -4 29 -7 44 -7c94 0 96 73 96 153v358z" />
    <glyph glyph-name="afii10030" unicode="&#x41c;" horiz-adv-x="1058" 
d="M14 0l98 700h308l109 -399l109 399h308l98 -700h-272l-32 364l-106 -364h-210l-106 364l-32 -364h-272z" />
    <glyph glyph-name="afii10031" unicode="&#x41d;" horiz-adv-x="826" 
d="M63 0v700h280v-241h140v241h280v-700h-280v256h-140v-256h-280z" />
    <glyph glyph-name="afii10032" unicode="&#x41e;" horiz-adv-x="874" 
d="M437 -21c-274 0 -405 182 -405 371s131 371 405 371s405 -182 405 -371s-131 -371 -405 -371zM437 203c71 0 138 49 138 147s-67 147 -138 147s-138 -49 -138 -147s67 -147 138 -147z" />
    <glyph glyph-name="afii10033" unicode="&#x41f;" horiz-adv-x="846" 
d="M63 700h720v-700h-280v497h-160v-497h-280v700z" />
    <glyph glyph-name="afii10034" unicode="&#x420;" horiz-adv-x="735" 
d="M63 0v700h365c223 0 279 -141 279 -241c0 -101 -57 -242 -279 -242h-85v-217h-280zM343 518v-119h31c56 0 67 32 67 60c0 56 -44 59 -67 59h-31z" />
    <glyph glyph-name="afii10035" unicode="&#x421;" horiz-adv-x="645" 
d="M610 267v-245c-44 -23 -104 -43 -188 -43c-228 0 -390 147 -390 371c0 254 208 371 386 371c57 0 136 -14 192 -53v-245c-43 53 -106 74 -155 74c-104 0 -154 -69 -154 -154c0 -89 65 -140 153 -140c62 0 116 28 156 64z" />
    <glyph glyph-name="afii10036" unicode="&#x422;" horiz-adv-x="588" 
d="M154 0v497h-147v203h574v-203h-147v-497h-280z" />
    <glyph glyph-name="afii10037" unicode="&#x423;" horiz-adv-x="791" 
d="M0 700h329l99 -214l80 214h290l-301 -700h-294l95 193z" />
    <glyph glyph-name="afii10038" unicode="&#x424;" horiz-adv-x="1016" 
d="M368 0v98c-120 -1 -336 33 -336 287s216 288 336 287v77h280v-77c120 1 336 -33 336 -287s-216 -288 -336 -287v-98h-280zM620 476v-182h18c56 0 87 39 87 91s-31 91 -87 91h-18zM396 294v182h-18c-56 0 -87 -39 -87 -91s31 -91 87 -91h18z" />
    <glyph glyph-name="afii10039" unicode="&#x425;" horiz-adv-x="797" 
d="M-7 0l249 368l-224 332h319l62 -133l62 133h306l-213 -322l250 -378h-315l-90 175l-98 -175h-308z" />
    <glyph glyph-name="afii10040" unicode="&#x426;" horiz-adv-x="875" 
d="M63 0v700h280v-497h161v497h280v-497h84v-343h-238v140h-567z" />
    <glyph glyph-name="afii10041" unicode="&#x427;" horiz-adv-x="777" 
d="M434 0v245c-71 -12 -88 -12 -131 -12c-252 0 -261 117 -261 236v231h280v-159c0 -33 -3 -106 52 -106c9 0 41 3 60 6v259h280v-700h-280z" />
    <glyph glyph-name="afii10042" unicode="&#x428;" horiz-adv-x="1148" 
d="M63 0v700h266v-497h112v497h266v-497h112v497h266v-700h-1022z" />
    <glyph glyph-name="afii10043" unicode="&#x429;" horiz-adv-x="1176" 
d="M63 0v700h266v-497h112v497h266v-497h112v497h266v-497h84v-343h-238v140h-868z" />
    <glyph glyph-name="afii10044" unicode="&#x42a;" horiz-adv-x="805" 
d="M133 0v497h-126v203h406v-259h89c229 0 275 -122 275 -220c0 -99 -47 -221 -275 -221h-369zM413 168h34c25 0 64 4 64 53c0 47 -38 52 -64 52h-34v-105z" />
    <glyph glyph-name="afii10045" unicode="&#x42b;" horiz-adv-x="1078" 
d="M63 0v700h280v-259h75c233 0 282 -122 282 -220c0 -99 -46 -221 -275 -221h-362zM343 168h34c25 0 64 4 64 53c0 47 -38 52 -64 52h-34v-105zM735 0v700h280v-700h-280z" />
    <glyph glyph-name="afii10046" unicode="&#x42c;" horiz-adv-x="728" 
d="M63 0v700h280v-259h75c233 0 282 -122 282 -220c0 -99 -46 -221 -275 -221h-362zM343 168h34c25 0 64 4 64 53c0 47 -38 52 -64 52h-34v-105z" />
    <glyph glyph-name="afii10047" unicode="&#x42d;" horiz-adv-x="676" 
d="M42 28v203c56 -37 116 -56 183 -56c106 0 136 61 145 102h-216v153h205c-13 60 -78 95 -153 95c-54 0 -117 -23 -164 -56v200c95 48 189 52 226 52c217 0 376 -149 376 -361c0 -214 -141 -381 -377 -381c-72 0 -153 12 -225 49z" />
    <glyph glyph-name="afii10048" unicode="&#x42e;" horiz-adv-x="1228" 
d="M343 449h66c29 154 158 272 382 272c232 0 405 -140 405 -371c0 -233 -172 -371 -406 -371c-208 0 -361 109 -381 281h-66v-260h-280v700h280v-251zM794 203c69 0 134 48 134 147s-65 147 -134 147c-74 0 -140 -49 -140 -147s66 -147 140 -147z" />
    <glyph glyph-name="afii10049" unicode="&#x42f;" horiz-adv-x="748" 
d="M14 0l159 253c-70 22 -143 83 -143 205c0 105 56 242 299 242h356v-700h-280v196l-84 -196h-307zM405 385v133h-28c-27 0 -81 -3 -81 -66c0 -64 58 -67 81 -67h28z" />
    <glyph glyph-name="afii10065" unicode="&#x430;" horiz-adv-x="681" 
d="M625 483v-483h-217v50c-26 -31 -73 -71 -157 -71c-111 0 -221 92 -221 263c0 149 89 262 221 262c85 0 131 -40 157 -73v52h217zM331 147c49 0 84 37 84 95c0 56 -35 94 -84 94s-84 -38 -84 -94c0 -58 35 -95 84 -95z" />
    <glyph glyph-name="afii10066" unicode="&#x431;" horiz-adv-x="646" 
d="M217 400h3c40 52 96 69 168 69c161 0 228 -123 228 -229c0 -129 -82 -261 -279 -261c-287 0 -302 245 -302 332c0 273 149 344 246 369c99 25 150 20 156 55h168c-5 -134 -100 -160 -171 -176c-115 -26 -202 -50 -217 -159zM325 140c47 0 74 33 74 87c0 53 -27 88 -74 88
c-46 0 -73 -35 -73 -88c0 -54 27 -87 73 -87z" />
    <glyph glyph-name="afii10067" unicode="&#x432;" horiz-adv-x="581" 
d="M56 483h323c18 0 150 0 150 -118c0 -72 -55 -102 -94 -113v-2c87 -15 118 -63 118 -120c0 -56 -34 -130 -167 -130h-330v483zM266 287h16c17 0 51 2 51 43c0 38 -35 41 -51 41h-16v-84zM266 112h22c47 0 48 33 48 42c0 13 -4 42 -48 42h-22v-84z" />
    <glyph glyph-name="afii10068" unicode="&#x433;" horiz-adv-x="420" 
d="M56 0v483h357v-168h-133v-315h-224z" />
    <glyph glyph-name="afii10069" unicode="&#x434;" 
d="M126 483h462v-329h70v-294h-168v140h-308v-140h-168v294c110 -6 112 120 112 166v163zM378 154v175h-70v-61c0 -55 -24 -91 -54 -114h124z" />
    <glyph glyph-name="afii10070" unicode="&#x435;" horiz-adv-x="620" 
d="M590 196h-353c-1 -43 22 -91 77 -91c45 0 61 24 66 42h200c-33 -96 -123 -168 -277 -168c-193 0 -273 126 -273 263c0 155 108 262 280 262c250 0 283 -205 280 -308zM240 294h147c0 41 -24 84 -73 84c-47 0 -72 -44 -74 -84z" />
    <glyph glyph-name="afii10072" unicode="&#x436;" horiz-adv-x="918" 
d="M354 0v207l-118 -207h-246l182 252l-162 231h240l104 -199v199h210v-199l104 199h240l-162 -231l182 -252h-246l-118 207v-207h-210z" />
    <glyph glyph-name="afii10073" unicode="&#x437;" horiz-adv-x="532" 
d="M93 338l-52 125c85 34 156 41 212 41c148 0 222 -62 222 -139c0 -67 -51 -100 -86 -113v-2c79 -15 115 -69 115 -119c0 -62 -54 -152 -250 -152c-94 0 -156 18 -233 54l67 134c64 -40 115 -48 143 -48c43 0 62 20 62 40c0 28 -41 30 -63 30h-83v112h93c48 0 53 19 53 30
c0 19 -13 40 -72 40c-36 0 -92 -15 -128 -33z" />
    <glyph glyph-name="afii10074" unicode="&#x438;" horiz-adv-x="658" 
d="M56 483h210v-231l131 231h205v-483h-210v238l-131 -238h-205v483z" />
    <glyph glyph-name="afii10075" unicode="&#x439;" horiz-adv-x="658" 
d="M56 483h210v-231l131 231h205v-483h-210v238l-131 -238h-205v483zM343 546c-123 0 -185 74 -198 154h135c5 -68 52 -70 63 -70s58 2 63 70h135c-13 -80 -75 -154 -198 -154z" />
    <glyph glyph-name="afii10076" unicode="&#x43a;" horiz-adv-x="648" 
d="M56 0v483h224v-197l111 197h249l-171 -227l189 -256h-256l-122 214v-214h-224z" />
    <glyph glyph-name="afii10077" unicode="&#x43b;" 
d="M616 483v-483h-224v315h-84v-154c0 -69 -11 -172 -197 -172c-35 0 -65 4 -97 11v168c10 -3 20 -4 30 -4c62 0 68 50 68 85v234h504z" />
    <glyph glyph-name="afii10078" unicode="&#x43c;" horiz-adv-x="834" 
d="M14 0l77 483h252l74 -259l74 259h252l77 -483h-209l-40 238l-70 -238h-168l-70 238l-40 -238h-209z" />
    <glyph glyph-name="afii10079" unicode="&#x43d;" horiz-adv-x="651" 
d="M56 0v483h224v-154h91v154h224v-483h-224v175h-91v-175h-224z" />
    <glyph glyph-name="afii10080" unicode="&#x43e;" horiz-adv-x="644" 
d="M322 -21c-204 0 -292 125 -292 263c0 137 87 262 292 262s292 -125 292 -262c0 -138 -88 -263 -292 -263zM322 161c58 0 75 50 75 81c0 30 -17 80 -75 80s-75 -50 -75 -80c0 -31 17 -81 75 -81z" />
    <glyph glyph-name="afii10081" unicode="&#x43f;" horiz-adv-x="658" 
d="M56 483h546v-483h-224v329h-98v-329h-224v483z" />
    <glyph glyph-name="afii10082" unicode="&#x440;" horiz-adv-x="681" 
d="M56 483h217v-52c45 61 113 73 157 73c104 0 221 -84 221 -262c0 -140 -82 -263 -221 -263c-31 0 -94 2 -150 63v-238h-224v679zM350 147c49 0 84 37 84 95c0 56 -35 94 -84 94s-84 -38 -84 -94c0 -58 35 -95 84 -95z" />
    <glyph glyph-name="afii10083" unicode="&#x441;" horiz-adv-x="472" 
d="M444 199v-185c-26 -13 -78 -35 -151 -35c-148 0 -263 103 -263 263c0 143 100 262 263 262c53 0 96 -11 151 -35v-190c-23 19 -61 43 -105 43c-46 0 -92 -26 -92 -85c0 -53 50 -76 100 -76c30 0 54 6 97 38z" />
    <glyph glyph-name="afii10084" unicode="&#x442;" horiz-adv-x="454" 
d="M115 0v315h-108v168h440v-168h-108v-315h-224z" />
    <glyph glyph-name="afii10085" unicode="&#x443;" horiz-adv-x="624" 
d="M-10 483h252l103 -210l73 210h216l-294 -679h-224l125 252z" />
    <glyph glyph-name="afii10086" unicode="&#x444;" horiz-adv-x="830" 
d="M310 -196v189c-106 -1 -280 40 -280 249c0 208 173 249 280 248v210h210v-210c107 1 280 -40 280 -248c0 -209 -174 -250 -280 -249v-189h-210zM499 322v-161c43 2 91 23 91 77c0 44 -32 83 -91 84zM331 161v161c-59 -1 -91 -40 -91 -84c0 -54 48 -75 91 -77z" />
    <glyph glyph-name="afii10087" unicode="&#x445;" horiz-adv-x="616" 
d="M-7 0l196 256l-175 227h238l56 -115l56 115h238l-175 -227l196 -256h-231l-84 137l-84 -137h-231z" />
    <glyph glyph-name="afii10088" unicode="&#x446;" 
d="M56 0v483h224v-329h83v329h224v-329h71v-294h-168v140h-434z" />
    <glyph glyph-name="afii10089" unicode="&#x447;" horiz-adv-x="630" 
d="M350 0v143c-39 -7 -85 -7 -102 -7c-183 0 -206 78 -206 141v206h224v-133c0 -53 21 -60 46 -60c11 0 21 1 38 7v186h224v-483h-224z" />
    <glyph glyph-name="afii10090" unicode="&#x448;" horiz-adv-x="910" 
d="M56 0v483h210v-329h84v329h210v-329h84v329h210v-483h-798z" />
    <glyph glyph-name="afii10091" unicode="&#x449;" horiz-adv-x="938" 
d="M56 0v483h210v-329h84v329h210v-329h84v329h210v-329h70v-294h-168v140h-700z" />
    <glyph glyph-name="afii10092" unicode="&#x44a;" horiz-adv-x="620" 
d="M315 322h100c133 0 180 -85 180 -164c0 -96 -77 -158 -180 -158h-324v315h-84v168h308v-161zM315 112h17c34 0 53 19 53 50c0 33 -23 48 -53 48h-17v-98z" />
    <glyph glyph-name="afii10093" unicode="&#x44b;" horiz-adv-x="886" 
d="M280 322h100c133 0 180 -85 180 -164c0 -96 -77 -158 -180 -158h-324v483h224v-161zM280 112h17c34 0 53 19 53 50c0 33 -23 48 -53 48h-17v-98zM606 0v483h224v-483h-224z" />
    <glyph glyph-name="afii10094" unicode="&#x44c;" horiz-adv-x="585" 
d="M280 322h100c133 0 180 -85 180 -164c0 -96 -77 -158 -180 -158h-324v483h224v-161zM280 112h17c34 0 53 19 53 50c0 33 -23 48 -53 48h-17v-98z" />
    <glyph glyph-name="afii10095" unicode="&#x44d;" horiz-adv-x="520" 
d="M42 7v147c53 -30 98 -35 127 -35c52 0 109 16 118 67h-182v112h178c-16 51 -76 66 -121 66c-49 0 -93 -21 -120 -38v144c44 22 91 34 146 34c197 0 302 -123 302 -259c0 -163 -132 -266 -298 -266c-42 0 -102 8 -150 28z" />
    <glyph glyph-name="afii10096" unicode="&#x44e;" horiz-adv-x="934" 
d="M266 322h52c20 72 82 182 268 182c202 0 292 -126 292 -262s-83 -263 -292 -263c-158 0 -246 82 -269 189h-51v-168h-210v483h210v-161zM586 161c58 0 75 49 75 81c0 31 -17 80 -75 80s-75 -51 -75 -80c0 -30 17 -81 75 -81z" />
    <glyph glyph-name="afii10097" unicode="&#x44f;" horiz-adv-x="595" 
d="M28 0l109 156c-76 20 -105 93 -105 154c0 48 20 173 192 173h315v-483h-210v143h-7l-77 -143h-217zM329 259v98h-31c-14 0 -56 0 -56 -50c0 -25 11 -48 56 -48h31z" />
    <glyph glyph-name="Euro" unicode="&#x20ac;" 
d="M609 672v-163c-23 24 -70 45 -146 45c-96 0 -135 -44 -150 -103h252l-36 -87h-224c0 -6 -1 -17 -1 -23c0 -9 1 -20 2 -28h203l-36 -86h-152c15 -52 56 -80 142 -80c59 0 121 19 146 42v-164c-26 -17 -80 -38 -173 -38c-208 0 -302 86 -333 240h-89l35 86h46
c-1 9 -1 17 -1 27c0 8 0 15 1 24h-81l35 87h52c32 151 115 263 335 263c90 0 150 -24 173 -42z" />
  </font>
</defs>
</svg>
